<svg width="27" height="23" viewBox="0 0 27 23" fill="none" xmlns="http://www.w3.org/2000/svg">
<path d="M0.938661 4.22398H25.3439C25.8623 4.22398 26.2825 3.80375 26.2825 3.28531V0.938661C26.2825 0.420227 25.8623 0 25.3439 0H0.938661C0.420227 0 0 0.420227 0 0.938661V3.28531C0 3.80375 0.420227 4.22398 0.938661 4.22398ZM0.938661 13.6106H25.3439C25.8623 13.6106 26.2825 13.1904 26.2825 12.6719V10.3253C26.2825 9.80684 25.8623 9.38661 25.3439 9.38661H0.938661C0.420227 9.38661 0 9.80684 0 10.3253V12.6719C0 13.1904 0.420227 13.6106 0.938661 13.6106ZM0.938661 22.9972H25.3439C25.8623 22.9972 26.2825 22.577 26.2825 22.0585V19.7119C26.2825 19.1935 25.8623 18.7732 25.3439 18.7732H0.938661C0.420227 18.7732 0 19.1935 0 19.7119V22.0585C0 22.577 0.420227 22.9972 0.938661 22.9972Z" fill="white"/>
</svg>
