<svg id="Layer_1" data-name="Layer 1" xmlns="http://www.w3.org/2000/svg" viewBox="0 0 800 800"><defs><style>.cls-1{fill:#fff;}</style></defs><title>MLS-Crest-FFF</title><g id="MLS-Crest-Mono-FFF"><path class="cls-1" d="M203.16,512.54l-3.61,3.61,9.94,9.94-2.29,2.29-9.94-9.94-3.61,3.61-1.86-1.86,9.51-9.51Zm15.46-2.46-5.15-11.57,3.29-3.29L228.56,507l-2.15,2.15-9.22-9.22-.06.06,5.7,12.74-1.6,1.6-12.74-5.69-.06.05,9.22,9.22-2.15,2.15-11.79-11.8L207,505Z"/><polygon class="cls-1" points="328.94 319.52 336.4 342.49 316.86 328.3 297.33 342.49 304.79 319.52 285.26 305.33 309.41 305.33 316.86 282.37 324.32 305.33 348.46 305.33 328.94 319.52"/><polygon class="cls-1" points="216.54 319.52 236.07 305.33 211.93 305.33 204.46 282.37 197.01 305.33 172.86 305.33 192.39 319.52 184.93 342.49 204.46 328.3 223.99 342.49 216.54 319.52"/><polygon class="cls-1" points="268.13 380.1 260.67 357.14 253.21 380.1 229.06 380.1 248.59 394.29 241.13 417.25 260.67 403.06 280.19 417.25 272.74 394.29 292.26 380.1 268.13 380.1"/><path class="cls-1" d="M195.07,229.61l-22.15-50.43h-.7v67.31a1.66,1.66,0,0,1-1.76,1.76H150.6a1.67,1.67,0,0,1-1.76-1.76v-116a1.66,1.66,0,0,1,1.76-1.75h20.92a2.69,2.69,0,0,1,2.8,1.75l30.23,68.19h.71L235,130.49a2.7,2.7,0,0,1,2.82-1.75h20.56a1.65,1.65,0,0,1,1.75,1.75v116a1.66,1.66,0,0,1-1.75,1.76H238.47a1.66,1.66,0,0,1-1.75-1.76V179.18H236l-22.15,50.43a3.36,3.36,0,0,1-3.35,2.29H198.4a3.35,3.35,0,0,1-3.33-2.29"/><path class="cls-1" d="M277.93,248.25h77.86a1.67,1.67,0,0,0,1.76-1.76V227a1.67,1.67,0,0,0-1.76-1.76H303.07a.93.93,0,0,1-1.06-1.06V130.49a1.66,1.66,0,0,0-1.76-1.75H277.93a1.65,1.65,0,0,0-1.75,1.75v116a1.66,1.66,0,0,0,1.75,1.76"/><path class="cls-1" d="M422.39,176.36l-6.32-.88c-13.71-1.93-18.63-6.32-18.63-13.17,0-7.57,5.44-13,16-13,9.84,0,18.62,3.16,27.77,9.14a1.75,1.75,0,0,0,2.45-.54l10.73-16c.87-1.23.7-1.93-.35-2.63-10-7.74-24.79-12.48-40.6-12.48-25.84,0-42.36,14.59-42.36,36.56,0,21.09,13.53,32.51,37.79,35.85l6.33.87c14.23,1.94,18.45,6.34,18.45,13.37,0,8.43-7,14.23-19.51,14.23-12.65,0-23.37-6-31.28-12.3a1.77,1.77,0,0,0-2.64.17l-13.35,15.29a2.16,2.16,0,0,0,.17,3c9.31,9,27.41,16.35,46.05,16.35,30.93,0,46.93-16,46.93-37.61s-13-32.87-37.62-36.21"/><path class="cls-1" d="M706.08,87.19V73.47H93.92V87.19s0,231.27,0,232.65A421.25,421.25,0,0,0,179.47,575c.86,1.14,1.74,2.27,2.62,3.4l-80.35,80.34,19.41,19.41,78.49-78.49A424.52,424.52,0,0,0,275.13,667a420.72,420.72,0,0,0,121,58.37l3.92,1.16,3.92-1.16c43.17-12.85,82.26-35,121-58.37,46.6-28.2,73-57.6,95.66-92,24.82-37.66,48.4-75.73,62.92-118.23a422.22,422.22,0,0,0,22.65-136.9C706.1,318.46,706.08,87.19,706.08,87.19ZM201.35,558.4a393.77,393.77,0,0,1-80-238.56c0-1.17,0-169.17,0-218.92H659.54L201.66,558.8C201.56,558.67,201.45,558.54,201.35,558.4ZM657.48,447.86A396.44,396.44,0,0,1,400,697.87,395.94,395.94,0,0,1,219.1,580.18L678.63,120.65c0,64.12,0,198.14,0,199.19A395.14,395.14,0,0,1,657.48,447.86Z"/></g></svg>